:SAMPLES-PER-SECOND 30
:FULLY-SPECIFIED
:DEGREES
567
root  -18.0627 30.9376 -58.886 -88.2275 -85.182 107.265
RightUpLeg  -24.2975 -5.63378 -1.31209
RightLeg  71.4224 5.65105 13.3569
RightFoot  9.99811 -0.207034 2.74388
RightToes  -48.2653 -0.287643 -0.356897
Spine  11.7816 1.21775 -0.515223
Spine1  22.8906 4.37847 -3.84699
HEad  5.07255 -16.6629 16.6569
LeftShoulder1  0 -2.42657e-020 -4.95415e-022
LeftArm  -21.3916 23.3483 -76.996
LeftForeArm  40.3644 -46.2868 -10.6313
LeftHand  -0.462957 -8.4258 5.91354
RightShoulder  0 2.42657e-020 1.07489e-018
RightArm  -91.5673 11.4134 49.9543
RightForeArm  -9.08291 39.1943 8.23319
RightHand  3.57352 22.1351 18.4976
LeftUpLeg  -52.0994 -14.4418 -4.67213
LeftLeg  40.7656 -4.27434 -3.22981
LeftFoot  0.573119 0.000745853 -0.149137
LeftToes  -6.65927 3.33339e-006 -4.73431e-007
568
root  -20.8855 30.9923 -59.1189 -117.083 -84.0261 132.713
RightUpLeg  -27.1872 -4.47687 -2.75061
RightLeg  78.0184 2.65568 9.07871
RightFoot  5.58492 -0.0331762 1.05758
RightToes  -42.6893 -0.240315 -0.329804
Spine  11.4405 0.631158 -1.0239
Spine1  22.2404 2.86347 -4.46263
HEad  9.67677 -13.6283 13.1768
LeftShoulder1  0 -2.42657e-020 -4.95415e-022
LeftArm  -20.2261 21.0409 -76.4048
LeftForeArm  41.2028 -40.7489 -8.73
LeftHand  -0.388445 -8.71018 4.73101
RightShoulder  0 2.42657e-020 1.07489e-018
RightArm  -86.5617 11.0041 52.5561
RightForeArm  0.0856105 48.8768 11.6489
RightHand  2.64359 22.457 13.633
LeftUpLeg  -45.7284 -13.0993 -6.42079
LeftLeg  45.2116 -2.65258 -2.35345
LeftFoot  -6.26524 0.017731 0.323968
LeftToes  -3.15934 3.33339e-006 -4.73431e-007
569
root  -23.3905 31.4429 -59.5258 -137.835 -82.7036 152.259
RightUpLeg  -33.1574 -2.84208 -1.94082
RightLeg  79.778 0.871472 3.14755
RightFoot  1.89334 0.00253746 0.223905
RightToes  -35.2333 -0.181568 -0.286644
Spine  10.7759 0.373595 -0.779197
Spine1  20.8514 2.30763 -4.22875
HEad  16.7652 -10.1367 8.75466
LeftShoulder1  0 -2.42657e-020 -4.95415e-022
LeftArm  -21.9069 16.8448 -77.485
LeftForeArm  45.8339 -34.4962 -6.93701
LeftHand  -0.210403 -10.049 2.02423
RightShoulder  0 2.42657e-020 1.07489e-018
RightArm  -81.5304 9.83196 57.9785
RightForeArm  14.082 61.5665 19.0791
RightHand  1.09821 23.1304 5.73438
LeftUpLeg  -39.1691 -11.6569 -6.35716
LeftLeg  44.2668 -1.99755 -1.7165
LeftFoot  -10.276 0.0365451 0.406424
LeftToes  -2.584 3.33339e-006 -4.73431e-007
570
root  -25.8157 32.2161 -60.0377 -148.128 -82.2538 161.643
RightUpLeg  -37.5671 -2.46227 -0.390293
RightLeg  75.0467 -0.305664 -1.15175
RightFoot  -2.71751 -0.00524551 0.156439
RightToes  -29.6833 -0.141746 -0.249759
Spine  10.2871 -0.550017 -0.163567
Spine1  19.8096 0.540105 -3.74595
HEad  22.7315 -4.64648 4.66186
LeftShoulder1  0 -2.42657e-020 -4.95415e-022
LeftArm  -23.3187 13.6366 -78.8442
LeftForeArm  47.8855 -30.2528 -5.87455
LeftHand  -0.372634 -10.3839 3.73174
RightShoulder  0 2.42657e-020 1.07489e-018
RightArm  -72.4868 7.99444 65.209
RightForeArm  43.9965 73.2356 36.1495
RightHand  -1.17168 25.494 -4.80714
LeftUpLeg  -31.504 -10.4879 -5.90087
LeftLeg  39.9676 -2.58314 -1.90051
LeftFoot  -10.8584 0.0520469 0.547605
LeftToes  -3.28944 3.33339e-006 -4.73431e-007
571
root  -28.2043 32.9344 -60.5989 -155.984 -82.7184 168.588
RightUpLeg  -39.8024 -2.10172 1.16154
RightLeg  65.5416 -1.80051 -3.48581
RightFoot  -5.16401 0.00111084 0.402237
RightToes  -26.9373 -0.12341 -0.230126
Spine  10.3166 -1.55562 0.740426
Spine1  19.7963 -1.48808 -2.69433
HEad  25.8064 0.597346 1.66861
LeftShoulder1  0 -2.42657e-020 -4.95415e-022
LeftArm  -23.3492 9.9475 -80.4202
LeftForeArm  45.3602 -28.7759 -5.53258
LeftHand  -0.3902 -9.68905 4.23445
RightShoulder  0 2.42657e-020 1.07489e-018
RightArm  -60.8311 4.41763 69.5527
RightForeArm  95.007 79.3895 71.9586
RightHand  -3.77093 25.0413 -16.4979
LeftUpLeg  -24.3373 -8.32605 -5.30778
LeftLeg  35.9722 -4.39834 -2.7792
LeftFoot  -9.49068 0.0685193 0.825393
LeftToes  -4.89572 3.33339e-006 -4.73431e-007
572
root  -30.5904 33.4317 -61.0777 -161.38 -82.8554 173.386
RightUpLeg  -40.5689 -0.933622 1.53814
RightLeg  52.7507 -3.62433 -4.22281
RightFoot  -6.86046 0.0156417 0.638568
RightToes  -23.2609 -0.100373 -0.20251
Spine  10.5051 -2.47714 1.47426
Spine1  20.0978 -3.59769 -1.55827
HEad  27.4476 4.83101 -0.929093
LeftShoulder1  0 -2.42657e-020 -4.95415e-022
LeftArm  -22.9725 6.71718 -81.8424
LeftForeArm  41.9352 -29.9446 -5.81055
LeftHand  -0.282761 -9.38828 3.07487
RightShoulder  0 2.42657e-020 1.07489e-018
RightArm  -48.3339 2.87645 71.1948
RightForeArm  125.392 79.9043 89.3023
RightHand  -6.44832 23.3568 -30.1271
LeftUpLeg  -18.1976 -5.77578 -4.94238
LeftLeg  32.8998 -6.1707 -3.44455
LeftFoot  -7.57397 0.061486 0.928877
LeftToes  -6.82975 3.33339e-006 -4.73431e-007
573
root  -32.9463 33.6028 -61.425 -160.351 -82.535 172.463
RightUpLeg  -41.0185 0.68185 0.0809131
RightLeg  38.3171 -3.73049 -2.5921
RightFoot  -5.3707 -0.00111603 0.3538
RightToes  -23.8266 -0.103802 -0.206855
Spine  10.185 -3.51507 1.85854
Spine1  19.4369 -6.04373 -0.768375
HEad  28.9843 8.29284 -3.28742
LeftShoulder1  0 -2.42657e-020 -4.95415e-022
LeftArm  -21.7024 4.86339 -82.7654
LeftForeArm  40.6221 -31.4201 -6.16664
LeftHand  -0.302584 -9.17179 3.40364
RightShoulder  0 2.42657e-020 1.07489e-018
RightArm  -37.1228 3.42539 72.2239
RightForeArm  120.687 79.6952 77.8337
RightHand  -7.55966 23.549 -34.8102
LeftUpLeg  -13.3064 -5.74672 -5.39225
LeftLeg  30.5799 -6.04943 -3.06396
LeftFoot  -6.04174 0.0385588 0.730633
LeftToes  -8.2085 3.33339e-006 -4.73431e-007
574
root  -35.3346 33.3908 -61.7658 -158.695 -81.6435 170.736
RightUpLeg  -41.3127 3.61613 -2.7279
RightLeg  25.9769 -1.62701 -0.671969
RightFoot  -1.54119 -0.00556335 -0.0360912
RightToes  -29.1694 -0.138244 -0.246152
Spine  9.81561 -4.21282 2.12744
Spine1  18.663 -7.88387 0.148866
HEad  30.2691 10.1034 -5.30318
LeftShoulder1  0 -2.42657e-020 -4.95415e-022
LeftArm  -19.0723 3.053 -83.6463
LeftForeArm  40.1793 -32.324 -6.39005
LeftHand  -0.368146 -8.9211 4.35004
RightShoulder  0 2.42657e-020 1.07489e-018
RightArm  -27.6545 5.8426 72.908
RightForeArm  96.9188 76.6236 48.1735
RightHand  -8.03748 22.7123 -38.2003
LeftUpLeg  -9.08819 -7.45936 -6.5472
LeftLeg  30.2355 -4.17994 -2.0899
LeftFoot  -5.90272 0.0267448 0.518733
LeftToes  -9.67675 3.33339e-006 -4.73431e-007
575
root  -37.6796 32.7685 -62.1881 -161.857 -79.5518 173.68
RightUpLeg  -43.2817 8.85752 -5.73403
RightLeg  21.0613 0.874447 0.271746
RightFoot  -2.35629 -0.00991425 -0.104562
RightToes  -29.3241 -0.139294 -0.247241
Spine  9.41396 -4.22556 2.39296
Spine1  17.7358 -8.41611 1.41131
HEad  31.3479 10.8916 -6.85505
LeftShoulder1  0 -2.42657e-020 -4.95415e-022
LeftArm  -15.9734 1.1344 -84.821
LeftForeArm  38.9697 -32.5872 -6.45724
LeftHand  -0.331869 -8.49383 4.10022
RightShoulder  0 2.42657e-020 1.07489e-018
RightArm  -20.7063 10.6147 73.954
RightForeArm  77.869 65.3912 22.6432
RightHand  -8.62442 22.7161 -40.7909
LeftUpLeg  -6.11821 -6.98767 -7.46198
LeftLeg  33.0192 -2.92246 -1.64552
LeftFoot  -7.54494 0.032368 0.490878
LeftToes  -10.5819 3.33339e-006 -4.73431e-007
576
root  -40.0178 31.7108 -62.6834 -166.003 -77.3343 176.84
RightUpLeg  -45.9117 9.99837 -4.89672
RightLeg  25.3382 6.13236 2.4248
RightFoot  -1.33684 -0.007245 -0.243572
RightToes  -41.0513 -0.226935 -0.320984
Spine  9.35098 -3.64248 2.80298
Spine1  17.4711 -7.23414 1.93798
HEad  32.7569 11.1137 -7.60718
LeftShoulder1  0 -2.42657e-020 -4.95415e-022
LeftArm  -13.919 -1.13056 -86.6296
LeftForeArm  39.0498 -32.3733 -6.40368
LeftHand  -0.283332 -8.57742 3.40958
RightShoulder  0 2.42657e-020 1.07489e-018
RightArm  -15.4968 16.7003 74.9624
RightForeArm  71.4908 47.7502 11.1261
RightHand  -8.63867 23.1054 -40.1986
LeftUpLeg  -4.27242 -4.83915 -8.03933
LeftLeg  39.9025 -2.59867 -1.90734
LeftFoot  -9.48372 0.0509153 0.613788
LeftToes  -13.5537 3.33339e-006 -4.73431e-007
577
root  -42.2602 30.2732 -63.3032 -172.324 -75.031 -178.413
RightUpLeg  -49.4047 9.85242 -1.70731
RightLeg  38.6895 7.22615 5.01623
RightFoot  9.13915 -0.0702725 1.25668
RightToes  -45.0208 -0.259782 -0.341692
Spine  10.4264 -1.77725 3.75056
Spine1  19.1667 -2.81295 1.13664
HEad  33.8429 10.8281 -7.08734
LeftShoulder1  0 -2.42657e-020 -4.95415e-022
LeftArm  -11.37 -4.73167 -88.9853
LeftForeArm  39.6093 -32.5997 -6.45963
LeftHand  -0.296966 -8.41951 3.6659
RightShoulder  0 2.42657e-020 1.07489e-018
RightArm  -12.453 22.8288 74.7327
RightForeArm  66.6823 33.9434 6.74874
RightHand  -7.41751 23.5723 -34.1536
LeftUpLeg  -4.32928 0.481503 -6.71997
LeftLeg  51.5875 -3.24 -3.58775
LeftFoot  -9.10847 0.0747497 0.938398
LeftToes  -21.7797 3.33339e-006 -4.73431e-007
578
root  -44.3859 28.9908 -63.8658 -179.755 -72.2186 -173.492
RightUpLeg  -51.9583 8.50183 2.61594
RightLeg  54.6575 8.13518 9.8478
RightFoot  2.99735 -0.0018434 0.447903
RightToes  -37.4814 -0.198683 -0.300458
Spine  13.0378 0.223435 5.05551
Spine1  23.5067 2.02137 0.480627
HEad  33.9218 10.0853 -7.08377
LeftShoulder1  0 -2.42657e-020 -4.95415e-022
LeftArm  -9.26068 -10.4809 -92.2542
LeftForeArm  40.1711 -31.7181 -6.24018
LeftHand  -0.38323 -8.5092 4.78185
RightShoulder  0 2.42657e-020 1.07489e-018
RightArm  -16.8169 31.0993 74.3321
RightForeArm  58.5038 24.363 4.53184
RightHand  -3.84441 25.697 -16.3752
LeftUpLeg  -5.7871 5.01374 -5.07736
LeftLeg  66.1516 -1.99955 -3.84303
LeftFoot  -5.02425 0.034302 0.781827
LeftToes  -21.3154 3.33339e-006 -4.73431e-007
579
root  -46.2499 28.0735 -64.3501 178.061 -72.0025 -172.835
RightUpLeg  -51.9699 8.00469 3.72637
RightLeg  63.659 6.55108 11.0664
RightFoot  -4.16056 -0.0606467 -1.29217
RightToes  -37.5309 -0.199066 -0.300754
Spine  15.1009 1.29205 6.02378
Spine1  26.799 4.7169 0.534406
HEad  33.6569 7.7543 -6.62673
LeftShoulder1  0 -2.42657e-020 -4.95415e-022
LeftArm  -6.2583 -15.8518 -95.1724
LeftForeArm  41.0155 -30.2062 -5.87377
LeftHand  -0.314882 -8.25818 3.99307
RightShoulder  0 2.42657e-020 1.07489e-018
RightArm  -42.6543 41.2699 73.5082
RightForeArm  62.8477 9.3578 1.61499
RightHand  0.134306 23.9707 1.00292
LeftUpLeg  -10.7891 6.33944 -4.61535
LeftLeg  80.0622 -0.540868 -2.25966
LeftFoot  -0.832715 0.00479272 0.659504
LeftToes  -25.4023 3.33339e-006 -4.73431e-007
580
root  -47.7653 27.7762 -64.696 175.71 -73.4766 -170.4
RightUpLeg  -51.1099 6.7538 4.44658
RightLeg  67.8243 5.50745 11.0654
RightFoot  -9.00321 -0.224487 -2.47342
RightToes  -35.4983 -0.183557 -0.288307
Spine  15.5292 1.58955 6.50859
Spine1  27.2033 4.71335 2.59138
HEad  34.5444 4.33676 -4.96595
LeftShoulder1  0 -2.42657e-020 -4.95415e-022
LeftArm  -3.27946 -18.4454 -97.6532
LeftForeArm  40.8856 -29.0642 -5.6056
LeftHand  -0.157213 -8.01839 1.87445
RightShoulder  0 2.42657e-020 1.07489e-018
RightArm  -58.2797 42.5843 67.6122
RightForeArm  62.7593 2.80412 0.451958
RightHand  0.053522 17.2729 0.722659
LeftUpLeg  -19.2058 5.43866 -3.95344
LeftLeg  90.3126 -0.0947695 -1.72608
LeftFoot  -4.7922 0.02521 0.602456
LeftToes  -19.3192 3.33339e-006 -4.73431e-007
